<svg width="270" height="46" viewBox="0 0 270 46" fill="none" xmlns="http://www.w3.org/2000/svg">
<path d="M69.8734 22.931H74.7073V32.2068C73.4662 33.1431 72.0291 33.8616 70.396 34.3624C68.7629 34.8632 67.119 35.1136 65.4642 35.1136C63.0908 35.1136 60.9569 34.6128 59.0625 33.6112C57.1682 32.5878 55.6766 31.1834 54.5879 29.3979C53.521 27.5906 52.9875 25.5547 52.9875 23.2902C52.9875 21.0257 53.521 19.0007 54.5879 17.2152C55.6766 15.408 57.1791 14.0035 59.0952 13.0019C61.0113 11.9785 63.167 11.4668 65.5621 11.4668C67.5654 11.4668 69.3835 11.8043 71.0166 12.4793C72.6496 13.1543 74.0214 14.1342 75.1319 15.4189L71.7351 18.5543C70.1021 16.8342 68.1315 15.9741 65.8234 15.9741C64.3646 15.9741 63.069 16.2789 61.9367 16.8886C60.8045 17.4983 59.9226 18.3584 59.2912 19.4689C58.6597 20.5793 58.344 21.8531 58.344 23.2902C58.344 24.7055 58.6597 25.9685 59.2912 27.0789C59.9226 28.1894 60.7936 29.0604 61.9041 29.6918C63.0363 30.3015 64.321 30.6064 65.7581 30.6064C67.2823 30.6064 68.6541 30.2797 69.8734 29.6265V22.931ZM96.4755 26.0011C96.4755 26.0664 96.4429 26.5237 96.3776 27.3729H83.0844C83.3239 28.4616 83.8901 29.3217 84.7828 29.9531C85.6755 30.5846 86.786 30.9003 88.1142 30.9003C89.0288 30.9003 89.8344 30.7697 90.5312 30.5084C91.2497 30.2253 91.9138 29.7898 92.5235 29.2019L95.2344 32.1414C93.5796 34.0358 91.1626 34.983 87.9836 34.983C86.0021 34.983 84.2493 34.6019 82.7251 33.8398C81.2009 33.056 80.0251 31.9781 79.1977 30.6064C78.3703 29.2346 77.9566 27.6777 77.9566 25.9358C77.9566 24.2156 78.3594 22.6697 79.1651 21.2979C79.9925 19.9043 81.1138 18.8265 82.5292 18.0644C83.9663 17.2805 85.5667 16.8886 87.3304 16.8886C89.0505 16.8886 90.6074 17.2588 92.0009 17.9991C93.3945 18.7394 94.4832 19.8064 95.2671 21.1999C96.0727 22.5717 96.4755 24.1721 96.4755 26.0011ZM87.363 20.7426C86.209 20.7426 85.2401 21.0693 84.4562 21.7225C83.6723 22.3757 83.1933 23.2685 83.0191 24.4007H91.6743C91.5001 23.2902 91.0211 22.4084 90.2372 21.7551C89.4534 21.0801 88.4953 20.7426 87.363 20.7426ZM111.201 33.8725C110.7 34.2426 110.08 34.5257 109.339 34.7217C108.621 34.8959 107.859 34.983 107.053 34.983C104.963 34.983 103.341 34.4495 102.187 33.3826C101.054 32.3156 100.488 30.7479 100.488 28.6793V21.4612H97.7774V17.5418H100.488V13.2632H105.583V17.5418H109.96V21.4612H105.583V28.614C105.583 29.3543 105.769 29.9314 106.139 30.3451C106.531 30.737 107.075 30.933 107.772 30.933C108.577 30.933 109.263 30.7152 109.829 30.2797L111.201 33.8725ZM125.012 33.8725C124.511 34.2426 123.891 34.5257 123.15 34.7217C122.432 34.8959 121.67 34.983 120.864 34.983C118.774 34.983 117.152 34.4495 115.998 33.3826C114.865 32.3156 114.299 30.7479 114.299 28.6793V21.4612H111.588V17.5418H114.299V13.2632H119.394V17.5418H123.771V21.4612H119.394V28.614C119.394 29.3543 119.579 29.9314 119.95 30.3451C120.342 30.737 120.886 30.933 121.583 30.933C122.388 30.933 123.074 30.7152 123.64 30.2797L125.012 33.8725ZM144.994 17.1499L137.058 35.7995C136.252 37.8245 135.25 39.2507 134.053 40.0781C132.877 40.9056 131.451 41.3193 129.774 41.3193C128.86 41.3193 127.956 41.1777 127.063 40.8947C126.171 40.6116 125.441 40.2197 124.875 39.7189L126.737 36.0935C127.129 36.4418 127.575 36.714 128.076 36.91C128.598 37.106 129.11 37.2039 129.611 37.2039C130.308 37.2039 130.874 37.0297 131.309 36.6814C131.745 36.3547 132.137 35.7995 132.485 35.0156L132.55 34.8523L124.94 17.1499H130.199L135.131 29.0713L140.095 17.1499H144.994Z" fill="#1577EA"/>
<path d="M157.695 11.8588H160.112V34.7217H157.695V11.8588ZM175.814 17.4112C177.97 17.4112 179.679 18.0426 180.942 19.3055C182.227 20.5467 182.869 22.3648 182.869 24.76V34.7217H180.55V24.9886C180.55 23.2031 180.104 21.8422 179.211 20.906C178.318 19.9697 177.044 19.5015 175.39 19.5015C173.539 19.5015 172.069 20.0568 170.98 21.1672C169.913 22.256 169.38 23.7693 169.38 25.7072V34.7217H167.061V17.5418H169.282V20.71C169.913 19.6648 170.784 18.8592 171.895 18.293C173.027 17.7051 174.334 17.4112 175.814 17.4112ZM203.282 17.5418L195.639 34.7217H193.255L185.645 17.5418H188.062L194.496 32.1741L200.996 17.5418H203.282ZM213.092 34.885C211.437 34.885 209.945 34.5148 208.617 33.7745C207.289 33.0124 206.244 31.9672 205.482 30.639C204.719 29.3108 204.338 27.8084 204.338 26.1318C204.338 24.4551 204.719 22.9527 205.482 21.6245C206.244 20.2963 207.289 19.262 208.617 18.5217C209.945 17.7814 211.437 17.4112 213.092 17.4112C214.746 17.4112 216.238 17.7814 217.566 18.5217C218.894 19.262 219.929 20.2963 220.669 21.6245C221.431 22.9527 221.812 24.4551 221.812 26.1318C221.812 27.8084 221.431 29.3108 220.669 30.639C219.929 31.9672 218.894 33.0124 217.566 33.7745C216.238 34.5148 214.746 34.885 213.092 34.885ZM213.092 32.8273C214.311 32.8273 215.4 32.5551 216.358 32.0108C217.338 31.4447 218.1 30.6499 218.644 29.6265C219.188 28.6031 219.461 27.4382 219.461 26.1318C219.461 24.8253 219.188 23.6604 218.644 22.637C218.1 21.6136 217.338 20.8297 216.358 20.2854C215.4 19.7193 214.311 19.4362 213.092 19.4362C211.872 19.4362 210.773 19.7193 209.793 20.2854C208.835 20.8297 208.073 21.6136 207.507 22.637C206.962 23.6604 206.69 24.8253 206.69 26.1318C206.69 27.4382 206.962 28.6031 207.507 29.6265C208.073 30.6499 208.835 31.4447 209.793 32.0108C210.773 32.5551 211.872 32.8273 213.092 32.8273ZM226.547 17.5418H228.866V34.7217H226.547V17.5418ZM227.722 13.7858C227.243 13.7858 226.841 13.6225 226.514 13.2959C226.187 12.9693 226.024 12.5773 226.024 12.1201C226.024 11.6846 226.187 11.3035 226.514 10.9769C226.841 10.6503 227.243 10.487 227.722 10.487C228.201 10.487 228.604 10.6503 228.931 10.9769C229.257 11.2818 229.421 11.6519 229.421 12.0874C229.421 12.5664 229.257 12.9693 228.931 13.2959C228.604 13.6225 228.201 13.7858 227.722 13.7858ZM242.438 34.885C240.74 34.885 239.216 34.5148 237.866 33.7745C236.537 33.0342 235.492 31.9999 234.73 30.6717C233.968 29.3217 233.587 27.8084 233.587 26.1318C233.587 24.4551 233.968 22.9527 234.73 21.6245C235.492 20.2963 236.537 19.262 237.866 18.5217C239.216 17.7814 240.74 17.4112 242.438 17.4112C243.919 17.4112 245.236 17.7051 246.39 18.293C247.566 18.8592 248.491 19.6975 249.166 20.808L247.435 21.9838C246.869 21.1346 246.151 20.5031 245.28 20.0894C244.409 19.6539 243.461 19.4362 242.438 19.4362C241.197 19.4362 240.076 19.7193 239.074 20.2854C238.094 20.8297 237.321 21.6136 236.755 22.637C236.211 23.6604 235.938 24.8253 235.938 26.1318C235.938 27.46 236.211 28.6358 236.755 29.6592C237.321 30.6608 238.094 31.4447 239.074 32.0108C240.076 32.5551 241.197 32.8273 242.438 32.8273C243.461 32.8273 244.409 32.6205 245.28 32.2068C246.151 31.7931 246.869 31.1616 247.435 30.3124L249.166 31.4882C248.491 32.5987 247.566 33.4479 246.39 34.0358C245.214 34.6019 243.897 34.885 242.438 34.885ZM268.394 26.8503H254.023C254.153 28.6358 254.839 30.0838 256.08 31.1943C257.321 32.283 258.889 32.8273 260.784 32.8273C261.85 32.8273 262.83 32.6422 263.723 32.2721C264.616 31.8801 265.389 31.314 266.042 30.5737L267.348 32.0761C266.586 32.9906 265.628 33.6874 264.474 34.1664C263.342 34.6455 262.09 34.885 260.718 34.885C258.955 34.885 257.387 34.5148 256.015 33.7745C254.665 33.0124 253.609 31.9672 252.847 30.639C252.085 29.3108 251.704 27.8084 251.704 26.1318C251.704 24.4551 252.063 22.9527 252.782 21.6245C253.522 20.2963 254.523 19.262 255.786 18.5217C257.071 17.7814 258.508 17.4112 260.098 17.4112C261.687 17.4112 263.113 17.7814 264.376 18.5217C265.639 19.262 266.63 20.2963 267.348 21.6245C268.067 22.931 268.426 24.4334 268.426 26.1318L268.394 26.8503ZM260.098 19.4035C258.443 19.4035 257.049 19.937 255.917 21.0039C254.807 22.0491 254.175 23.4209 254.023 25.1193H266.205C266.053 23.4209 265.411 22.0491 264.278 21.0039C263.168 19.937 261.774 19.4035 260.098 19.4035Z" fill="white"/>
<path d="M0 13.0645C0 5.84918 5.84918 0 13.0645 0H39.7379C42.143 0 44.0927 1.94973 44.0927 4.35484V32.6613C44.0927 39.8766 38.2436 45.7258 31.0282 45.7258H4.35484C1.94973 45.7258 0 43.7761 0 41.371V13.0645Z" fill="#1577EA"/>
<path d="M32.1169 18.5081V32.6537C32.1179 32.7967 32.0908 32.9384 32.037 33.0709C31.9832 33.2034 31.9038 33.324 31.8034 33.4258C31.703 33.5276 31.5836 33.6086 31.4519 33.6642C31.3202 33.7199 31.1788 33.749 31.0358 33.75H13.6012C13.3147 33.75 13.0399 33.6363 12.8372 33.4338C12.6345 33.2313 12.5204 32.9566 12.5201 32.67V13.0558C12.5201 12.4712 13.009 11.9758 13.611 11.9758H25.5814L32.1169 18.5081ZM29.9395 19.5968H24.4959V14.1532H14.6976V31.5726H29.9395V19.5968ZM17.9637 17.4194H21.2298V19.5968H17.9637V17.4194ZM17.9637 21.7742H26.6734V23.9516H17.9637V21.7742ZM17.9637 26.1291H26.6734V28.3065H17.9637V26.1291Z" fill="white"/>
</svg>
