<svg width="270" height="46" viewBox="0 0 270 46" fill="none" xmlns="http://www.w3.org/2000/svg">
<path d="M69.8734 22.931H74.7073V32.2069C73.4661 33.1431 72.029 33.8617 70.396 34.3625C68.7629 34.8633 67.119 35.1137 65.4641 35.1137C63.0907 35.1137 60.9569 34.6129 59.0625 33.6113C57.1682 32.5879 55.6766 31.1835 54.5879 29.398C53.521 27.5907 52.9875 25.5548 52.9875 23.2903C52.9875 21.0258 53.521 19.0008 54.5879 17.2153C55.6766 15.4081 57.179 14.0036 59.0952 13.002C61.0113 11.9786 63.1669 11.4669 65.5621 11.4669C67.5653 11.4669 69.3835 11.8044 71.0165 12.4794C72.6496 13.1544 74.0214 14.1343 75.1319 15.419L71.7351 18.5544C70.102 16.8343 68.1315 15.9742 65.8234 15.9742C64.3645 15.9742 63.069 16.279 61.9367 16.8887C60.8044 17.4984 59.9226 18.3585 59.2911 19.469C58.6597 20.5794 58.344 21.8532 58.344 23.2903C58.344 24.7056 58.6597 25.9685 59.2911 27.079C59.9226 28.1895 60.7936 29.0605 61.904 29.6919C63.0363 30.3016 64.321 30.6065 65.7581 30.6065C67.2823 30.6065 68.654 30.2798 69.8734 29.6266V22.931ZM96.4755 26.0012C96.4755 26.0665 96.4428 26.5238 96.3775 27.373H83.0844C83.3239 28.4617 83.89 29.3218 84.7828 29.9532C85.6755 30.5847 86.786 30.9004 88.1142 30.9004C89.0287 30.9004 89.8344 30.7698 90.5312 30.5085C91.2497 30.2254 91.9138 29.7899 92.5235 29.202L95.2344 32.1415C93.5795 34.0359 91.1626 34.9831 87.9836 34.9831C86.0021 34.9831 84.2493 34.602 82.7251 33.8399C81.2009 33.0561 80.0251 31.9782 79.1977 30.6065C78.3703 29.2347 77.9566 27.6778 77.9566 25.9359C77.9566 24.2157 78.3594 22.6698 79.165 21.298C79.9924 19.9044 81.1138 18.8266 82.5291 18.0645C83.9662 17.2806 85.5666 16.8887 87.3303 16.8887C89.0505 16.8887 90.6074 17.2589 92.0009 17.9992C93.3945 18.7395 94.4832 19.8065 95.267 21.2C96.0727 22.5718 96.4755 24.1722 96.4755 26.0012ZM87.363 20.7427C86.209 20.7427 85.24 21.0694 84.4562 21.7226C83.6723 22.3758 83.1932 23.2685 83.0191 24.4008H91.6743C91.5001 23.2903 91.0211 22.4085 90.2372 21.7552C89.4533 21.0802 88.4953 20.7427 87.363 20.7427ZM111.201 33.8726C110.7 34.2427 110.08 34.5258 109.339 34.7218C108.621 34.896 107.859 34.9831 107.053 34.9831C104.963 34.9831 103.341 34.4496 102.187 33.3827C101.054 32.3157 100.488 30.748 100.488 28.6794V21.4613H97.7774V17.5419H100.488V13.2633H105.583V17.5419H109.96V21.4613H105.583V28.6141C105.583 29.3544 105.768 29.9315 106.139 30.3452C106.531 30.7371 107.075 30.9331 107.772 30.9331C108.577 30.9331 109.263 30.7153 109.829 30.2798L111.201 33.8726ZM125.012 33.8726C124.511 34.2427 123.891 34.5258 123.15 34.7218C122.432 34.896 121.67 34.9831 120.864 34.9831C118.774 34.9831 117.152 34.4496 115.998 33.3827C114.865 32.3157 114.299 30.748 114.299 28.6794V21.4613H111.588V17.5419H114.299V13.2633H119.394V17.5419H123.771V21.4613H119.394V28.6141C119.394 29.3544 119.579 29.9315 119.95 30.3452C120.341 30.7371 120.886 30.9331 121.583 30.9331C122.388 30.9331 123.074 30.7153 123.64 30.2798L125.012 33.8726ZM144.994 17.15L137.058 35.7996C136.252 37.8246 135.25 39.2508 134.053 40.0782C132.877 40.9056 131.451 41.3194 129.774 41.3194C128.86 41.3194 127.956 41.1778 127.063 40.8948C126.171 40.6117 125.441 40.2198 124.875 39.719L126.737 36.0936C127.129 36.4419 127.575 36.7141 128.076 36.9101C128.598 37.1061 129.11 37.204 129.611 37.204C130.308 37.204 130.874 37.0298 131.309 36.6815C131.745 36.3548 132.137 35.7996 132.485 35.0157L132.55 34.8524L124.94 17.15H130.199L135.131 29.0714L140.095 17.15H144.994Z" fill="#1577EA"/>
<path d="M157.695 11.8589H160.112V34.7218H157.695V11.8589ZM175.814 17.4113C177.97 17.4113 179.679 18.0427 180.942 19.3056C182.227 20.5468 182.869 22.3649 182.869 24.7601V34.7218H180.55V24.9887C180.55 23.2032 180.104 21.8423 179.211 20.906C178.318 19.9698 177.044 19.5016 175.39 19.5016C173.539 19.5016 172.069 20.0569 170.98 21.1673C169.913 22.256 169.38 23.7694 169.38 25.7073V34.7218H167.061V17.5419H169.282V20.7101C169.913 19.6649 170.784 18.8593 171.895 18.2931C173.027 17.7052 174.333 17.4113 175.814 17.4113ZM203.282 17.5419L195.639 34.7218H193.255L185.645 17.5419H188.062L194.496 32.1742L200.996 17.5419H203.282ZM213.092 34.8851C211.437 34.8851 209.945 34.5149 208.617 33.7746C207.289 33.0125 206.244 31.9673 205.482 30.6391C204.719 29.3109 204.338 27.8085 204.338 26.1319C204.338 24.4552 204.719 22.9528 205.482 21.6246C206.244 20.2964 207.289 19.2621 208.617 18.5218C209.945 17.7815 211.437 17.4113 213.092 17.4113C214.746 17.4113 216.238 17.7815 217.566 18.5218C218.894 19.2621 219.929 20.2964 220.669 21.6246C221.431 22.9528 221.812 24.4552 221.812 26.1319C221.812 27.8085 221.431 29.3109 220.669 30.6391C219.929 31.9673 218.894 33.0125 217.566 33.7746C216.238 34.5149 214.746 34.8851 213.092 34.8851ZM213.092 32.8274C214.311 32.8274 215.4 32.5552 216.358 32.0109C217.338 31.4448 218.1 30.65 218.644 29.6266C219.188 28.6032 219.461 27.4383 219.461 26.1319C219.461 24.8254 219.188 23.6605 218.644 22.6371C218.1 21.6137 217.338 20.8298 216.358 20.2855C215.4 19.7194 214.311 19.4363 213.092 19.4363C211.872 19.4363 210.773 19.7194 209.793 20.2855C208.835 20.8298 208.073 21.6137 207.507 22.6371C206.962 23.6605 206.69 24.8254 206.69 26.1319C206.69 27.4383 206.962 28.6032 207.507 29.6266C208.073 30.65 208.835 31.4448 209.793 32.0109C210.773 32.5552 211.872 32.8274 213.092 32.8274ZM226.547 17.5419H228.865V34.7218H226.547V17.5419ZM227.722 13.7859C227.243 13.7859 226.84 13.6226 226.514 13.296C226.187 12.9694 226.024 12.5774 226.024 12.1202C226.024 11.6847 226.187 11.3036 226.514 10.977C226.84 10.6504 227.243 10.4871 227.722 10.4871C228.201 10.4871 228.604 10.6504 228.931 10.977C229.257 11.2819 229.421 11.652 229.421 12.0875C229.421 12.5665 229.257 12.9694 228.931 13.296C228.604 13.6226 228.201 13.7859 227.722 13.7859ZM242.438 34.8851C240.74 34.8851 239.215 34.5149 237.865 33.7746C236.537 33.0343 235.492 32 234.73 30.6718C233.968 29.3218 233.587 27.8085 233.587 26.1319C233.587 24.4552 233.968 22.9528 234.73 21.6246C235.492 20.2964 236.537 19.2621 237.865 18.5218C239.215 17.7815 240.74 17.4113 242.438 17.4113C243.919 17.4113 245.236 17.7052 246.39 18.2931C247.566 18.8593 248.491 19.6976 249.166 20.8081L247.435 21.9839C246.869 21.1347 246.151 20.5032 245.28 20.0895C244.409 19.654 243.461 19.4363 242.438 19.4363C241.197 19.4363 240.076 19.7194 239.074 20.2855C238.094 20.8298 237.321 21.6137 236.755 22.6371C236.211 23.6605 235.938 24.8254 235.938 26.1319C235.938 27.4601 236.211 28.6359 236.755 29.6593C237.321 30.6609 238.094 31.4448 239.074 32.0109C240.076 32.5552 241.197 32.8274 242.438 32.8274C243.461 32.8274 244.409 32.6206 245.28 32.2069C246.151 31.7931 246.869 31.1617 247.435 30.3125L249.166 31.4883C248.491 32.5988 247.566 33.448 246.39 34.0359C245.214 34.602 243.897 34.8851 242.438 34.8851ZM268.394 26.8504H254.023C254.153 28.6359 254.839 30.0839 256.08 31.1944C257.321 32.2831 258.889 32.8274 260.784 32.8274C261.85 32.8274 262.83 32.6423 263.723 32.2722C264.616 31.8802 265.389 31.3141 266.042 30.5738L267.348 32.0762C266.586 32.9907 265.628 33.6875 264.474 34.1665C263.342 34.6456 262.09 34.8851 260.718 34.8851C258.954 34.8851 257.387 34.5149 256.015 33.7746C254.665 33.0125 253.609 31.9673 252.847 30.6391C252.085 29.3109 251.704 27.8085 251.704 26.1319C251.704 24.4552 252.063 22.9528 252.781 21.6246C253.522 20.2964 254.523 19.2621 255.786 18.5218C257.071 17.7815 258.508 17.4113 260.098 17.4113C261.687 17.4113 263.113 17.7815 264.376 18.5218C265.639 19.2621 266.63 20.2964 267.348 21.6246C268.067 22.931 268.426 24.4335 268.426 26.1319L268.394 26.8504ZM260.098 19.4036C258.443 19.4036 257.049 19.9371 255.917 21.004C254.806 22.0492 254.175 23.421 254.023 25.1194H266.205C266.053 23.421 265.411 22.0492 264.278 21.004C263.168 19.9371 261.774 19.4036 260.098 19.4036Z" fill="black"/>
<path d="M0 13.0645C0 5.84918 5.84918 0 13.0645 0H39.7379C42.143 0 44.0927 1.94973 44.0927 4.35484V32.6613C44.0927 39.8766 38.2436 45.7258 31.0282 45.7258H4.35484C1.94973 45.7258 0 43.7761 0 41.371V13.0645Z" fill="#1577EA"/>
<path d="M32.1169 18.5081V32.6537C32.118 32.7966 32.0908 32.9384 32.037 33.0709C31.9832 33.2034 31.9039 33.3239 31.8035 33.4257C31.7031 33.5276 31.5836 33.6086 31.4519 33.6642C31.3202 33.7199 31.1788 33.749 31.0359 33.75H13.6013C13.3147 33.75 13.0399 33.6363 12.8372 33.4337C12.6345 33.2312 12.5205 32.9565 12.5202 32.67V13.0558C12.5202 12.4712 13.009 11.9758 13.6111 11.9758H25.5814L32.1169 18.5081ZM29.9395 19.5968H24.496V14.1532H14.6976V31.5726H29.9395V19.5968ZM17.9637 17.4194H21.2298V19.5968H17.9637V17.4194ZM17.9637 21.7742H26.6734V23.9516H17.9637V21.7742ZM17.9637 26.129H26.6734V28.3065H17.9637V26.129Z" fill="white"/>
</svg>
