<svg width="214" height="123" viewBox="0 0 214 123" fill="none" xmlns="http://www.w3.org/2000/svg">
<rect x="0.5" y="0.5" width="213" height="122" rx="7.5" stroke="#ABABAB" stroke-linecap="round" stroke-linejoin="round" stroke-dasharray="12 12"/>
<path d="M84.0833 55.2083C84.0821 52.9072 84.6676 50.6437 85.7845 48.6319C86.9014 46.62 88.5129 44.9262 90.4667 43.7104C90.9823 39.6898 92.9454 35.9948 95.9886 33.317C99.0318 30.6392 102.946 29.1621 107 29.1621C111.054 29.1621 114.968 30.6392 118.011 33.317C121.055 35.9948 123.018 39.6898 123.533 43.7104C125.957 45.2181 127.842 47.4529 128.919 50.0958C129.997 52.7387 130.212 55.6544 129.534 58.4268C128.855 61.1991 127.318 63.6862 125.142 65.533C122.966 67.3799 120.262 68.4919 117.417 68.7104L96.5833 68.75C89.5917 68.1792 84.0833 62.3375 84.0833 55.2083ZM117.1 64.5562C119.07 64.4047 120.943 63.6344 122.449 62.3553C123.956 61.0762 125.019 59.3537 125.488 57.4338C125.958 55.514 125.808 53.4951 125.061 51.6654C124.314 49.8357 123.008 48.2889 121.329 47.2458L119.648 46.1979L119.398 44.2354C119.009 41.2223 117.535 38.454 115.253 36.4481C112.971 34.4422 110.037 33.3358 106.999 33.3358C103.961 33.3358 101.027 34.4422 98.7446 36.4481C96.4628 38.454 94.9894 41.2223 94.6 44.2354L94.35 46.1979L92.6729 47.2458C90.9944 48.2887 89.6883 49.8354 88.9413 51.6649C88.1942 53.4944 88.0444 55.5132 88.5132 57.4329C88.9819 59.3527 90.0454 61.0752 91.5516 62.3545C93.0578 63.6338 94.9297 64.4044 96.9 64.5562L97.2604 64.5833H116.74L117.1 64.5562ZM109.083 52.0833V60.4167H104.917V52.0833H98.6667L107 41.6667L115.333 52.0833H109.083Z" fill="#ABABAB"/>
<path d="M41.544 84.72V91.488C41.544 92.5973 41.7893 93.4187 42.28 93.952C42.7707 94.4747 43.448 94.736 44.312 94.736C45.1653 94.736 45.832 94.4693 46.312 93.936C46.792 93.4027 47.032 92.5867 47.032 91.488V84.72H48.488V91.488C48.488 93.024 48.104 94.1813 47.336 94.96C46.5787 95.728 45.56 96.112 44.28 96.112C43.0107 96.112 41.992 95.728 41.224 94.96C40.4667 94.1813 40.088 93.024 40.088 91.488V84.72H41.544ZM55.5941 87.104C56.3728 87.104 57.0661 87.2853 57.6741 87.648C58.2821 88.0107 58.7568 88.5333 59.0981 89.216C59.4501 89.8987 59.6261 90.6987 59.6261 91.616C59.6261 92.5333 59.4501 93.3333 59.0981 94.016C58.7568 94.688 58.2821 95.2053 57.6741 95.568C57.0661 95.9307 56.3728 96.112 55.5941 96.112C54.7408 96.112 54.0155 95.8987 53.4181 95.472C52.8315 95.0347 52.4261 94.464 52.2021 93.76V100.16H50.7461V87.216H52.2021V89.456C52.4261 88.752 52.8315 88.1867 53.4181 87.76C54.0155 87.3227 54.7408 87.104 55.5941 87.104ZM55.1781 88.4C54.6128 88.4 54.1008 88.5333 53.6421 88.8C53.1835 89.056 52.8261 89.4293 52.5701 89.92C52.3141 90.4107 52.1861 90.976 52.1861 91.616C52.1861 92.256 52.3141 92.8213 52.5701 93.312C52.8261 93.792 53.1835 94.1653 53.6421 94.432C54.1008 94.6987 54.6128 94.832 55.1781 94.832C56.0848 94.832 56.8048 94.5493 57.3381 93.984C57.8821 93.408 58.1541 92.6187 58.1541 91.616C58.1541 90.6133 57.8821 89.8293 57.3381 89.264C56.8048 88.688 56.0848 88.4 55.1781 88.4ZM62.9834 84.16V96H61.5274V84.16H62.9834ZM69.3083 87.104C70.1509 87.104 70.9029 87.2853 71.5643 87.648C72.2363 88.0107 72.7589 88.5333 73.1323 89.216C73.5163 89.8987 73.7083 90.6987 73.7083 91.616C73.7083 92.5333 73.5163 93.3333 73.1323 94.016C72.7589 94.688 72.2363 95.2053 71.5643 95.568C70.9029 95.9307 70.1509 96.112 69.3083 96.112C68.4656 96.112 67.7083 95.9307 67.0363 95.568C66.3749 95.2053 65.8523 94.688 65.4683 94.016C65.0843 93.3333 64.8923 92.5333 64.8923 91.616C64.8923 90.6987 65.0843 89.8987 65.4683 89.216C65.8523 88.5333 66.3749 88.0107 67.0363 87.648C67.7083 87.2853 68.4656 87.104 69.3083 87.104ZM69.3083 88.384C68.7856 88.384 68.3003 88.5013 67.8523 88.736C67.4149 88.9707 67.0576 89.3333 66.7803 89.824C66.5136 90.304 66.3803 90.9013 66.3803 91.616C66.3803 92.32 66.5136 92.9173 66.7803 93.408C67.0576 93.888 67.4149 94.2453 67.8523 94.48C68.3003 94.7147 68.7856 94.832 69.3083 94.832C69.8309 94.832 70.3109 94.7147 70.7483 94.48C71.1963 94.2453 71.5536 93.888 71.8203 93.408C72.0976 92.9173 72.2362 92.32 72.2362 91.616C72.2362 90.9013 72.0976 90.304 71.8203 89.824C71.5536 89.3333 71.1963 88.9707 70.7483 88.736C70.3109 88.5013 69.8309 88.384 69.3083 88.384ZM79.2055 87.104C80.0588 87.104 80.7788 87.3173 81.3655 87.744C81.9628 88.1707 82.3788 88.7413 82.6135 89.456V87.216H84.0695V96H82.6135V93.76C82.3788 94.4747 81.9628 95.0453 81.3655 95.472C80.7788 95.8987 80.0588 96.112 79.2055 96.112C78.4268 96.112 77.7335 95.9307 77.1255 95.568C76.5175 95.2053 76.0375 94.688 75.6855 94.016C75.3442 93.3333 75.1735 92.5333 75.1735 91.616C75.1735 90.6987 75.3442 89.8987 75.6855 89.216C76.0375 88.5333 76.5175 88.0107 77.1255 87.648C77.7335 87.2853 78.4268 87.104 79.2055 87.104ZM79.6215 88.4C78.7255 88.4 78.0055 88.688 77.4615 89.264C76.9282 89.8293 76.6615 90.6133 76.6615 91.616C76.6615 92.6187 76.9282 93.408 77.4615 93.984C78.0055 94.5493 78.7255 94.832 79.6215 94.832C80.1975 94.832 80.7095 94.6987 81.1575 94.432C81.6162 94.1653 81.9735 93.792 82.2295 93.312C82.4855 92.8213 82.6135 92.256 82.6135 91.616C82.6135 90.976 82.4855 90.4107 82.2295 89.92C81.9735 89.4293 81.6162 89.056 81.1575 88.8C80.7095 88.5333 80.1975 88.4 79.6215 88.4ZM89.9868 87.104C90.8401 87.104 91.5601 87.3173 92.1468 87.744C92.7441 88.1707 93.1601 88.7413 93.3948 89.456V84.16H94.8508V96H93.3948V93.76C93.1601 94.4747 92.7441 95.0453 92.1468 95.472C91.5601 95.8987 90.8401 96.112 89.9868 96.112C89.2081 96.112 88.5148 95.9307 87.9068 95.568C87.2988 95.2053 86.8188 94.688 86.4668 94.016C86.1254 93.3333 85.9548 92.5333 85.9548 91.616C85.9548 90.6987 86.1254 89.8987 86.4668 89.216C86.8188 88.5333 87.2988 88.0107 87.9068 87.648C88.5148 87.2853 89.2081 87.104 89.9868 87.104ZM90.4028 88.4C89.5068 88.4 88.7868 88.688 88.2428 89.264C87.7094 89.8293 87.4428 90.6133 87.4428 91.616C87.4428 92.6187 87.7094 93.408 88.2428 93.984C88.7868 94.5493 89.5068 94.832 90.4028 94.832C90.9788 94.832 91.4908 94.6987 91.9388 94.432C92.3974 94.1653 92.7548 93.792 93.0108 93.312C93.2668 92.8213 93.3948 92.256 93.3948 91.616C93.3948 90.976 93.2668 90.4107 93.0108 89.92C92.7548 89.4293 92.3974 89.056 91.9388 88.8C91.4908 88.5333 90.9788 88.4 90.4028 88.4ZM101.729 87.216L104.577 94.128L107.217 87.216H108.833L103.617 100.16H101.969L103.793 95.856L100.097 87.216H101.729ZM114.152 87.104C114.995 87.104 115.747 87.2853 116.408 87.648C117.08 88.0107 117.603 88.5333 117.976 89.216C118.36 89.8987 118.552 90.6987 118.552 91.616C118.552 92.5333 118.36 93.3333 117.976 94.016C117.603 94.688 117.08 95.2053 116.408 95.568C115.747 95.9307 114.995 96.112 114.152 96.112C113.309 96.112 112.552 95.9307 111.88 95.568C111.219 95.2053 110.696 94.688 110.312 94.016C109.928 93.3333 109.736 92.5333 109.736 91.616C109.736 90.6987 109.928 89.8987 110.312 89.216C110.696 88.5333 111.219 88.0107 111.88 87.648C112.552 87.2853 113.309 87.104 114.152 87.104ZM114.152 88.384C113.629 88.384 113.144 88.5013 112.696 88.736C112.259 88.9707 111.901 89.3333 111.624 89.824C111.357 90.304 111.224 90.9013 111.224 91.616C111.224 92.32 111.357 92.9173 111.624 93.408C111.901 93.888 112.259 94.2453 112.696 94.48C113.144 94.7147 113.629 94.832 114.152 94.832C114.675 94.832 115.155 94.7147 115.592 94.48C116.04 94.2453 116.397 93.888 116.664 93.408C116.941 92.9173 117.08 92.32 117.08 91.616C117.08 90.9013 116.941 90.304 116.664 89.824C116.397 89.3333 116.04 88.9707 115.592 88.736C115.155 88.5013 114.675 88.384 114.152 88.384ZM128.257 87.216V96H126.801V93.936C126.577 94.6507 126.177 95.2 125.601 95.584C125.036 95.9573 124.375 96.144 123.617 96.144C122.604 96.144 121.783 95.8187 121.153 95.168C120.524 94.5067 120.209 93.5627 120.209 92.336V87.216H121.665V92.192C121.665 93.0667 121.889 93.744 122.337 94.224C122.785 94.6933 123.393 94.928 124.161 94.928C124.961 94.928 125.601 94.672 126.081 94.16C126.561 93.6373 126.801 92.88 126.801 91.888V87.216H128.257ZM132.046 88.992C132.334 88.384 132.755 87.9147 133.31 87.584C133.865 87.2427 134.526 87.072 135.294 87.072V88.656H134.846C134.025 88.656 133.353 88.8693 132.83 89.296C132.307 89.712 132.046 90.4053 132.046 91.376V96H130.59V87.216H132.046V88.992ZM142.14 84.16V96H140.684V84.16H142.14ZM148.465 87.104C149.307 87.104 150.059 87.2853 150.721 87.648C151.393 88.0107 151.915 88.5333 152.289 89.216C152.673 89.8987 152.865 90.6987 152.865 91.616C152.865 92.5333 152.673 93.3333 152.289 94.016C151.915 94.688 151.393 95.2053 150.721 95.568C150.059 95.9307 149.307 96.112 148.465 96.112C147.622 96.112 146.865 95.9307 146.193 95.568C145.531 95.2053 145.009 94.688 144.625 94.016C144.241 93.3333 144.049 92.5333 144.049 91.616C144.049 90.6987 144.241 89.8987 144.625 89.216C145.009 88.5333 145.531 88.0107 146.193 87.648C146.865 87.2853 147.622 87.104 148.465 87.104ZM148.465 88.384C147.942 88.384 147.457 88.5013 147.009 88.736C146.571 88.9707 146.214 89.3333 145.937 89.824C145.67 90.304 145.537 90.9013 145.537 91.616C145.537 92.32 145.67 92.9173 145.937 93.408C146.214 93.888 146.571 94.2453 147.009 94.48C147.457 94.7147 147.942 94.832 148.465 94.832C148.987 94.832 149.467 94.7147 149.905 94.48C150.353 94.2453 150.71 93.888 150.977 93.408C151.254 92.9173 151.392 92.32 151.392 91.616C151.392 90.9013 151.254 90.304 150.977 89.824C150.71 89.3333 150.353 88.9707 149.905 88.736C149.467 88.5013 148.987 88.384 148.465 88.384ZM158.362 87.104C159.215 87.104 159.935 87.3173 160.522 87.744C161.119 88.1707 161.535 88.7413 161.77 89.456V87.216H163.226V96.144C163.226 96.9547 163.055 97.6747 162.714 98.304C162.372 98.9333 161.892 99.424 161.274 99.776C160.655 100.128 159.935 100.304 159.114 100.304C157.93 100.304 156.964 100.016 156.218 99.44C155.471 98.8747 154.996 98.1067 154.794 97.136H156.234C156.404 97.7227 156.724 98.1813 157.194 98.512C157.674 98.8533 158.287 99.024 159.034 99.024C159.823 99.024 160.474 98.768 160.986 98.256C161.508 97.7547 161.77 97.0507 161.77 96.144V93.76C161.535 94.4747 161.119 95.0453 160.522 95.472C159.935 95.8987 159.215 96.112 158.362 96.112C157.583 96.112 156.89 95.9307 156.282 95.568C155.674 95.2053 155.194 94.688 154.842 94.016C154.5 93.3333 154.33 92.5333 154.33 91.616C154.33 90.6987 154.5 89.8987 154.842 89.216C155.194 88.5333 155.674 88.0107 156.282 87.648C156.89 87.2853 157.583 87.104 158.362 87.104ZM158.778 88.4C157.882 88.4 157.162 88.688 156.618 89.264C156.084 89.8293 155.818 90.6133 155.818 91.616C155.818 92.6187 156.084 93.408 156.618 93.984C157.162 94.5493 157.882 94.832 158.778 94.832C159.354 94.832 159.866 94.6987 160.314 94.432C160.772 94.1653 161.13 93.792 161.386 93.312C161.642 92.8213 161.77 92.256 161.77 91.616C161.77 90.976 161.642 90.4107 161.386 89.92C161.13 89.4293 160.772 89.056 160.314 88.8C159.866 88.5333 159.354 88.4 158.778 88.4ZM169.527 87.104C170.37 87.104 171.122 87.2853 171.783 87.648C172.455 88.0107 172.978 88.5333 173.351 89.216C173.735 89.8987 173.927 90.6987 173.927 91.616C173.927 92.5333 173.735 93.3333 173.351 94.016C172.978 94.688 172.455 95.2053 171.783 95.568C171.122 95.9307 170.37 96.112 169.527 96.112C168.684 96.112 167.927 95.9307 167.255 95.568C166.594 95.2053 166.071 94.688 165.687 94.016C165.303 93.3333 165.111 92.5333 165.111 91.616C165.111 90.6987 165.303 89.8987 165.687 89.216C166.071 88.5333 166.594 88.0107 167.255 87.648C167.927 87.2853 168.684 87.104 169.527 87.104ZM169.527 88.384C169.004 88.384 168.519 88.5013 168.071 88.736C167.634 88.9707 167.276 89.3333 166.999 89.824C166.732 90.304 166.599 90.9013 166.599 91.616C166.599 92.32 166.732 92.9173 166.999 93.408C167.276 93.888 167.634 94.2453 168.071 94.48C168.519 94.7147 169.004 94.832 169.527 94.832C170.05 94.832 170.53 94.7147 170.967 94.48C171.415 94.2453 171.772 93.888 172.039 93.408C172.316 92.9173 172.455 92.32 172.455 91.616C172.455 90.9013 172.316 90.304 172.039 89.824C171.772 89.3333 171.415 88.9707 170.967 88.736C170.53 88.5013 170.05 88.384 169.527 88.384Z" fill="#ABABAB"/>
</svg>
