<svg width="570" height="570" viewBox="0 0 570 570" fill="none" xmlns="http://www.w3.org/2000/svg">
<g clip-path="url(#clip0)">
<path d="M570 435.936H0V436.221H570V435.936Z" fill="#EBEBEB"/>
<path d="M270.18 385.092H50.0573C48.3329 385.089 46.6801 384.402 45.4619 383.181C44.2436 381.961 43.5593 380.307 43.5593 378.583V69.1524C43.5743 67.4379 44.2652 65.7985 45.4819 64.5904C46.6985 63.3822 48.3427 62.7029 50.0573 62.7H270.18C271.906 62.7 273.562 63.3858 274.783 64.6066C276.004 65.8273 276.689 67.483 276.689 69.2094V378.583C276.689 380.309 276.004 381.965 274.783 383.185C273.562 384.406 271.906 385.092 270.18 385.092ZM50.0573 62.928C48.4085 62.931 46.8282 63.5881 45.6634 64.7551C44.4985 65.9221 43.8443 67.5036 43.8443 69.1524V378.583C43.8443 380.231 44.4985 381.813 45.6634 382.98C46.8282 384.147 48.4085 384.804 50.0573 384.807H270.18C271.83 384.804 273.411 384.147 274.578 382.981C275.745 381.814 276.401 380.232 276.404 378.583V69.1524C276.401 67.5025 275.745 65.9211 274.578 64.7544C273.411 63.5878 271.83 62.931 270.18 62.928H50.0573Z" fill="#EBEBEB"/>
<path d="M516.773 385.092H296.639C294.914 385.089 293.26 384.402 292.04 383.182C290.82 381.962 290.133 380.308 290.13 378.583V69.1524C290.148 67.4368 290.841 65.7975 292.06 64.5897C293.278 63.3818 294.924 62.7029 296.639 62.7H516.773C518.486 62.7059 520.127 63.3866 521.342 64.5944C522.556 65.8022 523.245 67.4398 523.26 69.1524V378.583C523.26 380.305 522.577 381.957 521.362 383.177C520.146 384.397 518.496 385.086 516.773 385.092ZM296.639 62.928C294.99 62.931 293.408 63.5878 292.241 64.7544C291.075 65.9211 290.418 67.5025 290.415 69.1524V378.583C290.418 380.232 291.075 381.814 292.241 382.981C293.408 384.147 294.99 384.804 296.639 384.807H516.773C518.423 384.804 520.005 384.147 521.171 382.981C522.338 381.814 522.995 380.232 522.998 378.583V69.1524C522.995 67.5025 522.338 65.9211 521.171 64.7544C520.005 63.5878 518.423 62.931 516.773 62.928H296.639Z" fill="#EBEBEB"/>
<path d="M512.886 454.279H483.246V454.564H512.886V454.279Z" fill="#EBEBEB"/>
<path d="M405.874 457.379H354.54V457.664H405.874V457.379Z" fill="#EBEBEB"/>
<path d="M482.106 443.699H412.805V443.984H482.106V443.699Z" fill="#EBEBEB"/>
<path d="M81.7265 445.615H59.8043V445.9H81.7265V445.615Z" fill="#EBEBEB"/>
<path d="M154.915 445.615H91.884V445.9H154.915V445.615Z" fill="#EBEBEB"/>
<path d="M278.32 450.425H193.424V450.71H278.32V450.425Z" fill="#EBEBEB"/>
<path d="M317.433 97.356H88.35V261.812H317.433V97.356Z" fill="#FAFAFA"/>
<path d="M149.773 261.812L189.058 97.3446H232.788L193.504 261.812H149.773Z" fill="white"/>
<path d="M235.182 261.812L274.466 97.3446H290.415L251.131 261.812H235.182Z" fill="white"/>
<path d="M134.68 261.812L173.975 97.3446H179.96L140.676 261.812H134.68Z" fill="white"/>
<path d="M328.32 91.6902H77.4288C77.2941 91.6902 77.1607 91.7167 77.0362 91.7683C76.9117 91.8198 76.7986 91.8954 76.7033 91.9907C76.6081 92.086 76.5325 92.1991 76.4809 92.3236C76.4294 92.448 76.4028 92.5815 76.4028 92.7162C76.4028 92.8504 76.4294 92.9833 76.4811 93.1071C76.5328 93.231 76.6086 93.3433 76.704 93.4377C76.7995 93.532 76.9126 93.6065 77.0371 93.6568C77.1615 93.7072 77.2946 93.7323 77.4288 93.7308H328.32C328.59 93.7308 328.849 93.6243 329.042 93.4343C329.234 93.2444 329.343 92.9863 329.346 92.7162C329.343 92.445 329.234 92.1857 329.042 91.994C328.85 91.8022 328.591 91.6931 328.32 91.6902Z" fill="#E0E0E0"/>
<path d="M199.021 262.166H208.791L208.791 97.0026H199.021L199.021 262.166Z" fill="#F0F0F0"/>
<path d="M208.791 262.166H209.885L209.885 97.0026H208.791L208.791 262.166Z" fill="#E0E0E0"/>
<path d="M86.7654 178.228V180.941L319.018 180.941V178.228H86.7654Z" fill="#F0F0F0"/>
<path d="M319.018 260.672V95.76H86.7654V260.672V263.34H319.018V260.672ZM89.4786 260.672V98.4846H316.339V260.672H89.4786Z" fill="#F0F0F0"/>
<path d="M319.018 263.386H320.374V95.7599H319.018V263.386Z" fill="#E0E0E0"/>
<path opacity="0.5" d="M278.605 89.205V362.349H335.867L325.367 89.205H278.605Z" fill="#EBEBEB"/>
<path opacity="0.5" d="M238.864 89.205V362.349H296.126L285.627 89.205H238.864Z" fill="#EBEBEB"/>
<path opacity="0.5" d="M106.499 89.205V362.349H71.2728L77.7366 89.205H106.499Z" fill="#EBEBEB"/>
<path opacity="0.5" d="M130.952 89.205V362.349H95.7258L102.178 89.205H130.952Z" fill="#EBEBEB"/>
<path d="M214.525 435.925H239.799L239.799 262.348H214.525L214.525 435.925Z" fill="#E6E6E6"/>
<path d="M223.429 435.936H214.525V402.944H232.754L223.429 435.936Z" fill="#F0F0F0"/>
<path d="M481.844 435.925H507.118V262.348H481.844V435.925Z" fill="#E6E6E6"/>
<path d="M214.525 426.93L489.607 426.93V262.36H214.525V426.93Z" fill="#F0F0F0"/>
<path d="M480.704 435.936H489.607V402.944H471.379L480.704 435.936Z" fill="#F0F0F0"/>
<path d="M398.92 275.983V412.121H480.464V275.983H398.92Z" fill="#E6E6E6"/>
<path d="M431.627 280.771H447.758C454.578 280.836 461.176 278.352 466.26 273.805H413.102C418.191 278.357 424.799 280.842 431.627 280.771Z" fill="#F0F0F0"/>
<path d="M311.3 275.983V412.121H392.844V275.983H311.3Z" fill="#E6E6E6"/>
<path d="M343.14 280.771H359.271C366.099 280.842 372.706 278.357 377.796 273.805H324.649C329.73 278.349 336.324 280.833 343.14 280.771Z" fill="#F0F0F0"/>
<path d="M223.679 275.983V412.121H305.224V275.983H223.679Z" fill="#E6E6E6"/>
<path d="M255.554 280.771H271.685C278.513 280.842 285.12 278.357 290.21 273.805H237.029C242.118 278.357 248.726 280.842 255.554 280.771Z" fill="#F0F0F0"/>
<path d="M497.04 230.861H413.261C413.261 230.861 414.025 252.453 438.045 259.578V262.36H472.245V259.578C496.299 252.453 497.04 230.861 497.04 230.861Z" fill="#E6E6E6"/>
<path d="M474.343 93.9816H364.754V211.333H474.343V93.9816Z" fill="#F0F0F0"/>
<path d="M474.354 211.322H477.979V93.9702H474.354V211.322Z" fill="#E0E0E0"/>
<path d="M455.818 104.036H383.291V201.256H455.818V104.036Z" fill="white"/>
<path d="M285 487.418C407.074 487.418 506.035 481.641 506.035 474.514C506.035 467.387 407.074 461.609 285 461.609C162.926 461.609 63.9653 467.387 63.9653 474.514C63.9653 481.641 162.926 487.418 285 487.418Z" fill="#F5F5F5"/>
<path d="M419.349 470.056L410.069 469.908L409.442 448.373L418.722 448.522L419.349 470.056Z" fill="#FF8B7B"/>
<path d="M409.75 463.775L419.885 463.934C420.067 463.937 420.241 464.004 420.379 464.123C420.516 464.242 420.608 464.405 420.637 464.584L421.982 472.861C422.014 473.065 422.001 473.273 421.943 473.471C421.886 473.669 421.786 473.852 421.65 474.008C421.514 474.163 421.346 474.287 421.157 474.37C420.968 474.454 420.764 474.495 420.557 474.491C416.898 474.377 411.631 474.08 407.037 474.001C401.668 473.921 405.897 474.137 399.604 474.001C395.797 473.932 394.964 470.068 396.583 469.748C403.925 468.266 404.301 466.625 407.482 464.425C408.152 463.977 408.945 463.75 409.75 463.775Z" fill="#407BFF"/>
<path d="M383.45 191.702C382.652 194.849 381.729 197.71 380.771 200.686C379.814 203.661 378.742 206.534 377.625 209.441C375.351 215.338 372.634 221.054 369.497 226.541C369.109 227.248 368.665 227.932 368.231 228.627L367.57 229.664L367.251 230.189C367.148 230.348 366.955 230.599 366.818 230.804C365.641 232.48 364.237 233.984 362.645 235.273C359.768 237.559 356.501 239.305 353.001 240.426C349.827 241.47 346.546 242.159 343.22 242.478C341.601 242.66 339.982 242.729 338.375 242.752C336.735 242.776 335.095 242.711 333.461 242.558L333.279 235.581C338.675 234.501 343.907 232.719 348.84 230.28C350.944 229.211 352.867 227.818 354.54 226.153C355.195 225.466 355.762 224.7 356.227 223.873L356.41 223.554L356.649 223.098L357.128 222.186C357.436 221.582 357.766 221.046 358.051 220.351C360.499 215.201 362.657 209.918 364.515 204.527C365.495 201.803 366.396 199.044 367.319 196.285C368.243 193.526 369.075 190.676 369.884 188.043L383.45 191.702Z" fill="#FF8B7B"/>
<path d="M335.479 235.638L324.946 234.498L325.447 245.077C325.447 245.077 333.427 247.015 336.756 240.928L335.479 235.638Z" fill="#FF8B7B"/>
<path d="M316.27 239.183L318.22 243.743C318.379 244.112 318.641 244.428 318.974 244.652C319.308 244.876 319.699 245 320.101 245.009L325.447 245.134L324.946 234.555L317.775 236.254C317.471 236.327 317.187 236.466 316.942 236.659C316.696 236.853 316.496 237.097 316.353 237.374C316.21 237.652 316.129 237.958 316.115 238.27C316.1 238.582 316.153 238.894 316.27 239.183Z" fill="#FF8B7B"/>
<path opacity="0.2" d="M409.442 448.373L409.762 459.477L419.041 459.625L418.722 448.522L409.442 448.373Z" fill="black"/>
<path d="M374.034 179.938C369.052 186.196 364.515 198.178 362.634 205.018C368.163 214.217 378.993 212.61 378.993 212.61C378.993 212.61 387.954 205.519 390.883 197.038C393.813 188.556 382.835 168.868 374.034 179.938Z" fill="#407BFF"/>
<path d="M431.581 181.26C433.781 197.288 430.441 218.139 432.972 248.52L383.336 251.666C374.308 213.123 373.339 196.946 372.381 186.31C372.199 184.241 372.684 182.167 373.765 180.393C374.846 178.619 376.466 177.237 378.389 176.449C390.085 171.604 410.149 170.886 423.932 173.314C425.885 173.655 427.68 174.608 429.055 176.037C430.431 177.465 431.315 179.295 431.581 181.26Z" fill="#407BFF"/>
<path d="M395.363 191.919C393.183 191.906 391.037 192.452 389.128 193.506C387.22 194.56 385.614 196.086 384.465 197.938H407.516C406.048 196.113 404.201 194.63 402.102 193.591C400.004 192.551 397.704 191.981 395.363 191.919Z" fill="white"/>
<path d="M408.211 198.805H383.952C383.376 199.887 382.936 201.035 382.641 202.225H410.218C409.673 201.016 409.001 199.869 408.211 198.805Z" fill="white"/>
<path d="M410.719 203.319H382.39C382.213 204.335 382.129 205.365 382.139 206.397H411.62C411.404 205.348 411.103 204.319 410.719 203.319Z" fill="white"/>
<path d="M393.585 223.326H403.708C404.886 222.839 405.982 222.174 406.957 221.354H389.88C391.025 222.169 392.27 222.832 393.585 223.326Z" fill="white"/>
<path d="M387.326 219.097H409.089C409.611 218.38 410.065 217.617 410.446 216.817H385.491C386.045 217.622 386.658 218.384 387.326 219.097Z" fill="white"/>
<path d="M384.283 214.856H411.232C411.494 214.034 411.685 213.191 411.802 212.336H383.188C383.492 213.201 383.858 214.043 384.283 214.856Z" fill="white"/>
<path d="M411.848 207.822H382.208C382.202 207.917 382.202 208.012 382.208 208.107C382.298 208.956 382.446 209.798 382.652 210.626H411.939C411.971 209.785 411.94 208.943 411.848 208.107C411.853 208.012 411.853 207.917 411.848 207.822Z" fill="white"/>
<path d="M407.744 149.5L394.337 161.333C396.264 166.36 397.039 171.775 389.401 174.169C388.984 174.298 388.63 174.579 388.409 174.956C386.608 178.079 386.232 182.936 394.645 182.183C400.932 181.645 406.799 178.803 411.118 174.203C411.429 173.912 411.615 173.512 411.636 173.086C411.658 172.661 411.513 172.244 411.232 171.923C406.672 167.021 406.98 155.838 407.744 149.5Z" fill="#FF8B7B"/>
<path opacity="0.2" d="M402.272 154.322L394.292 161.333C394.792 162.516 395.174 163.745 395.432 165.004C398.624 164.399 402.751 160.979 402.808 157.958C402.875 156.722 402.693 155.486 402.272 154.322Z" fill="black"/>
<path d="M382.618 132.935C379.677 136.994 381.615 146.399 383.758 147.881C389.23 145.316 388.227 130.621 382.618 132.935Z" fill="#263238"/>
<path d="M407.983 139.148C407.983 148.348 408.371 153.729 403.993 158.745C397.415 166.28 385.822 162.826 383.108 153.82C380.669 145.715 381.159 132.035 389.948 127.794C391.864 126.835 393.995 126.387 396.134 126.491C398.274 126.596 400.351 127.251 402.163 128.392C403.976 129.534 405.464 131.123 406.484 133.007C407.503 134.891 408.02 137.006 407.983 139.148Z" fill="#FF8B7B"/>
<path d="M407.368 148.257C408.713 145.179 401.44 147.014 401.44 147.014C401.44 147.014 400.3 137.165 403.423 133.334C400.265 135.215 391.898 135.158 390.165 133.334C386.642 135.113 381.968 135.614 378.982 133.574C375.995 131.533 376.143 126.677 378.07 124.363C380.521 126.643 383.998 123.496 382.447 121.957C387.349 119.016 395.66 120.612 397.267 122.299C396.889 121.696 396.763 120.968 396.917 120.273C397.07 119.578 397.491 118.971 398.088 118.583C398.088 118.583 399.057 122.311 401.998 122.151C407.197 121.866 413.284 123.644 410.959 128.558C414.675 128.945 416.453 133.186 415.348 136.538C414.242 139.889 417.571 140.494 417.947 139.479C419.201 141.839 418.198 143.241 416.02 144.107C421.72 150.697 409.568 152.703 407.311 156.989C407.288 156.944 405.737 152.008 407.368 148.257Z" fill="#263238"/>
<path d="M412.84 147.835C411.854 149.942 410.082 151.579 407.903 152.395C405.008 153.455 403.343 150.936 403.97 148.097C404.529 145.532 406.718 141.896 409.67 142.067C412.623 142.238 414.025 145.247 412.84 147.835Z" fill="#FF8B7B"/>
<path d="M419.292 350.368C416.305 303.628 422.108 249.147 422.108 249.147L383.348 251.609C385.628 269.222 392.468 325.869 395.284 353.56C398.282 382.96 406.353 454.552 406.353 454.552L422.085 454.792C422.085 454.792 423.533 387.212 419.292 350.368Z" fill="#263238"/>
<path opacity="0.2" d="M419.007 345.317C419.007 344.702 418.95 344.098 418.916 343.482C417.958 322.438 418.597 300.447 419.543 283.005L417.149 284.521C406.957 299.626 413.501 328.046 419.144 348.133C419.098 347.198 419.041 346.252 419.007 345.317Z" fill="black"/>
<path d="M404.871 451.326L406.125 457.733L422.461 458.029L423.1 451.976L404.871 451.326Z" fill="#263238"/>
<path d="M394.736 142.91C394.736 143.651 394.417 144.29 393.927 144.324C393.437 144.358 393.004 143.777 392.958 143.024C392.912 142.272 393.277 141.645 393.767 141.611C394.258 141.577 394.691 142.158 394.736 142.91Z" fill="#263238"/>
<path d="M384.408 143.731C384.408 144.472 384.089 145.111 383.599 145.133C383.108 145.156 382.675 144.586 382.63 143.845C382.584 143.104 382.949 142.466 383.439 142.432C383.929 142.397 384.363 142.979 384.408 143.731Z" fill="#263238"/>
<path d="M388.432 143.378C387.664 145.723 386.579 147.951 385.206 150.001C385.741 150.331 386.341 150.54 386.965 150.615C387.589 150.689 388.222 150.628 388.82 150.434L388.432 143.378Z" fill="#FF5652"/>
<path d="M392.092 152.224C392.922 152.069 393.712 151.747 394.415 151.279C395.119 150.811 395.72 150.206 396.184 149.5C396.211 149.447 396.217 149.387 396.203 149.331C396.188 149.274 396.153 149.224 396.104 149.192C396.079 149.178 396.051 149.169 396.022 149.166C395.994 149.164 395.965 149.166 395.937 149.175C395.909 149.183 395.884 149.197 395.861 149.216C395.839 149.234 395.821 149.257 395.808 149.283C395.278 150.053 394.577 150.69 393.76 151.145C392.944 151.599 392.033 151.86 391.1 151.905C391.07 151.906 391.041 151.914 391.015 151.927C390.988 151.94 390.965 151.958 390.945 151.98C390.926 152.003 390.912 152.029 390.903 152.057C390.894 152.085 390.891 152.115 390.895 152.144C390.894 152.173 390.9 152.202 390.912 152.229C390.924 152.255 390.941 152.279 390.962 152.298C390.984 152.318 391.009 152.332 391.037 152.341C391.065 152.35 391.094 152.353 391.123 152.35C391.448 152.327 391.771 152.285 392.092 152.224Z" fill="#263238"/>
<path d="M397.096 138.316C397.17 138.303 397.237 138.267 397.29 138.214C397.336 138.178 397.374 138.134 397.402 138.083C397.43 138.032 397.447 137.976 397.453 137.918C397.458 137.86 397.451 137.802 397.433 137.747C397.415 137.692 397.386 137.641 397.347 137.598C396.904 137.06 396.339 136.636 395.698 136.362C395.057 136.088 394.36 135.972 393.665 136.025C393.55 136.042 393.446 136.102 393.374 136.193C393.302 136.284 393.267 136.399 393.277 136.515C393.284 136.572 393.303 136.627 393.331 136.677C393.36 136.727 393.398 136.771 393.443 136.806C393.489 136.841 393.541 136.866 393.597 136.881C393.652 136.896 393.71 136.899 393.767 136.891C394.326 136.85 394.886 136.945 395.4 137.168C395.914 137.39 396.367 137.733 396.72 138.168C396.765 138.222 396.823 138.264 396.889 138.29C396.955 138.316 397.026 138.325 397.096 138.316Z" fill="#263238"/>
<path d="M381.9 139.912C381.973 139.904 382.042 139.88 382.104 139.84C382.165 139.801 382.216 139.747 382.253 139.684C382.509 139.192 382.876 138.766 383.325 138.442C383.774 138.117 384.294 137.902 384.841 137.815C384.905 137.82 384.969 137.811 385.029 137.789C385.089 137.768 385.144 137.733 385.189 137.689C385.235 137.644 385.27 137.59 385.293 137.53C385.316 137.47 385.325 137.406 385.321 137.343C385.317 137.279 385.299 137.217 385.269 137.161C385.239 137.104 385.197 137.055 385.146 137.017C385.095 136.978 385.036 136.951 384.974 136.937C384.911 136.924 384.847 136.923 384.784 136.937C384.093 137.033 383.435 137.289 382.861 137.685C382.287 138.08 381.813 138.605 381.478 139.217C381.424 139.319 381.412 139.437 381.444 139.548C381.476 139.658 381.55 139.752 381.649 139.81C381.722 139.866 381.809 139.902 381.9 139.912Z" fill="#263238"/>
<path d="M470.638 470.729L461.335 470.592L456.992 449.046L466.283 449.194L470.638 470.729Z" fill="#FF8B7B"/>
<path d="M469.281 463.98L459.169 463.889C459.087 463.879 459.005 463.89 458.928 463.919C458.851 463.948 458.782 463.996 458.727 464.057C458.672 464.119 458.633 464.192 458.613 464.272C458.593 464.352 458.592 464.436 458.611 464.516L459.853 472.804C459.949 473.256 460.191 473.665 460.541 473.967C460.89 474.27 461.33 474.45 461.791 474.479C465.416 474.479 466.499 474.183 471.082 474.229C476.44 474.229 474.012 474.434 480.293 474.491C484.101 474.491 483.713 470.683 482.003 470.296C476.554 469.087 474.673 466.99 471.743 464.732C471.025 464.224 470.161 463.96 469.281 463.98Z" fill="#407BFF"/>
<path opacity="0.2" d="M456.992 449.057L459.226 460.15L468.529 460.298L466.294 449.194L456.992 449.057Z" fill="black"/>
<path d="M451.759 349.684C445.284 307.424 439.664 265.153 432.995 248.463L400.14 250.538C400.14 250.538 418.619 322.951 428.059 352.26C432.619 383.04 455.293 455.327 455.293 455.327L470.045 454.678C470.045 454.678 458.28 391.943 451.759 349.684Z" fill="#263238"/>
<path d="M452.99 452.728L455.316 459.021L471.664 458.497L471.287 452.455L452.99 452.728Z" fill="#263238"/>
<path d="M433.553 184.52C434.078 185.353 434.465 186.002 434.899 186.732C435.332 187.462 435.685 188.146 436.039 188.864C436.791 190.289 437.509 191.725 438.216 193.162C439.595 196.076 440.824 199.059 441.898 202.099C443.004 205.167 443.918 208.3 444.634 211.481L445.159 213.898L445.58 216.361C445.729 217.17 445.808 218.014 445.9 218.846L446.036 220.1L446.105 220.727V220.875V221.354C446.177 222.721 445.947 224.087 445.432 225.355C445.154 226.053 444.815 226.724 444.418 227.362C443.814 228.312 443.119 229.202 442.343 230.018C441.087 231.323 439.735 232.531 438.296 233.632C435.711 235.589 433.004 237.379 430.19 238.99C424.8 242.104 419.183 244.81 413.387 247.084L410.081 240.95C414.846 237.428 419.725 233.894 424.251 230.257C426.531 228.456 428.72 226.586 430.635 224.728C431.515 223.894 432.327 222.99 433.063 222.026C433.292 221.713 433.494 221.381 433.667 221.035C433.747 220.875 433.565 220.818 433.439 221.821C433.439 221.912 433.439 222.083 433.439 222.232V222.425V222.3L433.337 221.81L433.132 220.818C433.006 220.157 432.881 219.496 432.698 218.834L432.197 216.862L431.615 214.879C430.806 212.245 429.883 209.623 428.822 207.024C427.762 204.425 426.611 201.837 425.402 199.295C424.787 198.029 424.16 196.753 423.499 195.521L422.495 193.675L421.549 191.965L433.553 184.52Z" fill="#FF8B7B"/>
<path d="M413.467 239.628L404.096 240.586L408.12 251.028C408.12 251.028 416.51 249.136 416.317 244.53L413.467 239.628Z" fill="#FF8B7B"/>
<path d="M397.735 248.098L399.775 251.518C400.171 252.178 400.791 252.672 401.522 252.911C402.253 253.15 403.045 253.117 403.754 252.818L408.12 251.028L404.096 240.54L399 243.584C398.619 243.795 398.283 244.08 398.012 244.422C397.742 244.764 397.542 245.157 397.424 245.577C397.306 245.997 397.273 246.436 397.327 246.869C397.38 247.301 397.519 247.719 397.735 248.098Z" fill="#FF8B7B"/>
<path d="M407.527 189.514C410.252 196.912 419.942 206.614 424.821 211.652C435.651 211.516 442.902 200.834 442.902 200.834C442.902 200.834 437.977 182.092 428.355 175.321C421.116 170.236 402.728 176.426 407.527 189.514Z" fill="#407BFF"/>
<path d="M387.6 344.873H162.746V365.758H387.6V344.873Z" fill="#263238"/>
<path opacity="0.2" d="M387.6 344.873H323.771V365.758H387.6V344.873Z" fill="black"/>
<path d="M176.21 365.758H162.746V478.538H176.21V365.758Z" fill="#263238"/>
<path opacity="0.2" d="M176.198 371.606L162.746 368.687V365.758H176.198V371.606Z" fill="black"/>
<path d="M387.611 365.758H374.148V478.538H387.611V365.758Z" fill="#263238"/>
<path opacity="0.2" d="M387.611 365.758H374.148V478.538H387.611V365.758Z" fill="black"/>
<path d="M337.235 365.758H323.771V478.538H337.235V365.758Z" fill="#263238"/>
<path opacity="0.2" d="M337.235 371.606L323.771 368.687V365.758H337.235V371.606Z" fill="black"/>
<path d="M218.344 365.758H204.881V478.538H218.344V365.758Z" fill="#263238"/>
<path opacity="0.2" d="M218.344 365.758H204.881V478.538H218.344V365.758Z" fill="black"/>
<path d="M364.754 239.993H196.183L181.214 305.543H349.786L364.754 239.993Z" fill="#263238"/>
<path d="M364.754 239.993H368.608L353.639 305.543H349.786L364.754 239.993Z" fill="black"/>
<path d="M388.968 266.213H146C138.444 266.213 132.32 272.338 132.32 279.893V331.193C132.32 338.748 138.444 344.873 146 344.873H388.968C396.523 344.873 402.648 338.748 402.648 331.193V279.893C402.648 272.338 396.523 266.213 388.968 266.213Z" fill="#407BFF"/>
<path opacity="0.2" d="M388.979 266.213H357.914C350.359 266.213 344.234 272.338 344.234 279.893V331.193C344.234 338.748 350.359 344.873 357.914 344.873H388.979C396.535 344.873 402.659 338.748 402.659 331.193V279.893C402.659 272.338 396.535 266.213 388.979 266.213Z" fill="black"/>
<path opacity="0.2" d="M334.248 286.539H142.306C141.701 286.539 141.122 286.299 140.694 285.871C140.266 285.444 140.026 284.864 140.026 284.259C140.026 283.654 140.266 283.074 140.694 282.647C141.122 282.219 141.701 281.979 142.306 281.979H334.248C334.853 281.979 335.433 282.219 335.86 282.647C336.288 283.074 336.528 283.654 336.528 284.259C336.528 284.864 336.288 285.444 335.86 285.871C335.433 286.299 334.853 286.539 334.248 286.539Z" fill="black"/>
<path d="M323.076 307.629H334.613C335.114 307.626 335.593 307.426 335.948 307.071C336.302 306.717 336.502 306.238 336.505 305.737C336.505 305.234 336.306 304.751 335.952 304.394C335.597 304.038 335.116 303.836 334.613 303.833H323.076C322.573 303.836 322.092 304.038 321.737 304.394C321.383 304.751 321.184 305.234 321.184 305.737C321.187 306.238 321.387 306.717 321.741 307.071C322.095 307.426 322.575 307.626 323.076 307.629Z" fill="white"/>
<path d="M323.076 315.712H334.613C335.116 315.709 335.597 315.507 335.952 315.15C336.306 314.793 336.505 314.311 336.505 313.808C336.502 313.307 336.302 312.827 335.948 312.473C335.593 312.119 335.114 311.918 334.613 311.915H323.076C322.575 311.918 322.095 312.119 321.741 312.473C321.387 312.827 321.187 313.307 321.184 313.808C321.184 314.311 321.383 314.793 321.737 315.15C322.092 315.507 322.573 315.709 323.076 315.712Z" fill="white"/>
<path d="M323.076 323.76H334.613C335.116 323.757 335.597 323.555 335.952 323.198C336.306 322.842 336.505 322.359 336.505 321.856C336.505 321.353 336.306 320.871 335.952 320.514C335.597 320.157 335.116 319.955 334.613 319.952H323.076C322.573 319.955 322.092 320.157 321.737 320.514C321.383 320.871 321.184 321.353 321.184 321.856C321.184 322.359 321.383 322.842 321.737 323.198C322.092 323.555 322.573 323.757 323.076 323.76Z" fill="white"/>
<path d="M187.085 284.259C189.308 265.027 175.514 249.443 156.305 249.443H296.742C315.974 249.443 329.802 265.027 327.522 284.259H187.085Z" fill="#407BFF"/>
<g opacity="0.3">
<path opacity="0.3" d="M187.085 284.259C189.308 265.027 175.514 249.443 156.305 249.443H296.742C315.974 249.443 329.802 265.027 327.522 284.259H187.085Z" fill="white"/>
</g>
<path d="M156.283 249.443H296.742C277.522 249.443 260.137 265.027 257.914 284.259L241.954 422.575C239.742 441.807 222.357 457.391 203.125 457.391H132.331C113.099 457.391 99.2711 441.807 101.551 422.575L117.511 284.259C119.7 265.027 137.051 249.443 156.283 249.443Z" fill="#407BFF"/>
<path opacity="0.7" d="M156.283 249.443H296.742C277.522 249.443 260.137 265.027 257.914 284.259L241.954 422.575C239.742 441.807 222.357 457.391 203.125 457.391H132.331C113.099 457.391 99.2711 441.807 101.551 422.575L117.511 284.259C119.7 265.027 137.051 249.443 156.283 249.443Z" fill="white"/>
<path d="M172.357 422.575C170.134 441.807 183.928 457.391 203.137 457.391H62.6999C43.4681 457.391 29.6399 441.807 31.9199 422.575H172.357Z" fill="#407BFF"/>
<path opacity="0.5" d="M172.357 422.575C170.134 441.807 183.928 457.391 203.137 457.391H62.6999C43.4681 457.391 29.6399 441.807 31.9199 422.575H172.357Z" fill="white"/>
<path d="M127.68 296.286H130.986L129.755 306.956H126.449L127.68 296.286Z" fill="#407BFF"/>
<path d="M133.38 296.286H136.458L139.798 302.191L140.471 296.286H143.583L142.352 306.956H139.251L135.922 301.097L135.249 306.956H132.149L133.38 296.286Z" fill="#407BFF"/>
<path d="M144.677 296.286H148.097L149.613 303.97L152.862 296.286H156.214L151.016 306.956H147.447L144.677 296.286Z" fill="#407BFF"/>
<path d="M155.781 301.633C155.891 300.083 156.578 298.63 157.707 297.563C158.878 296.56 160.385 296.038 161.925 296.104C162.648 296.044 163.374 296.141 164.055 296.389C164.736 296.637 165.355 297.03 165.87 297.54C166.311 298.097 166.627 298.743 166.796 299.434C166.966 300.124 166.984 300.843 166.85 301.541C166.757 302.626 166.418 303.675 165.859 304.608C165.361 305.401 164.66 306.046 163.829 306.478C162.894 306.898 161.883 307.122 160.858 307.138C159.832 307.154 158.815 306.96 157.867 306.569C157.111 306.167 156.509 305.526 156.157 304.745C155.749 303.761 155.619 302.685 155.781 301.633ZM159.075 301.633C158.913 302.408 159.03 303.216 159.406 303.913C159.589 304.149 159.827 304.336 160.099 304.46C160.372 304.583 160.67 304.638 160.968 304.619C161.288 304.631 161.606 304.575 161.903 304.455C162.199 304.335 162.467 304.154 162.689 303.924C163.231 303.207 163.534 302.337 163.556 301.439C163.718 300.687 163.592 299.902 163.202 299.239C163.015 299.005 162.774 298.82 162.5 298.699C162.227 298.578 161.928 298.525 161.629 298.543C161.316 298.54 161.006 298.601 160.718 298.722C160.429 298.844 160.169 299.024 159.953 299.25C159.408 299.931 159.1 300.772 159.075 301.644V301.633Z" fill="#407BFF"/>
<path d="M169.358 296.286H172.664L171.433 306.956H168.127L169.358 296.286Z" fill="#407BFF"/>
<path d="M181.408 302.59L184.19 303.468C183.943 304.211 183.556 304.9 183.05 305.497C182.59 306.033 182.013 306.454 181.362 306.728C180.592 307.023 179.77 307.163 178.946 307.139C177.993 307.176 177.044 307.004 176.164 306.637C175.419 306.246 174.822 305.621 174.465 304.859C174.008 303.837 173.861 302.703 174.044 301.598C174.143 300.055 174.814 298.604 175.925 297.529C177.072 296.543 178.552 296.033 180.063 296.104C181.151 296.03 182.233 296.319 183.141 296.924C183.903 297.561 184.409 298.452 184.566 299.432L181.579 300.071C181.548 299.822 181.466 299.581 181.34 299.364C181.195 299.119 180.986 298.918 180.735 298.783C180.465 298.641 180.163 298.571 179.858 298.577C179.505 298.571 179.157 298.649 178.841 298.806C178.525 298.962 178.252 299.193 178.045 299.478C177.629 300.102 177.389 300.827 177.35 301.576C177.163 302.392 177.255 303.247 177.612 304.004C177.775 304.228 177.992 304.406 178.244 304.522C178.495 304.638 178.772 304.687 179.048 304.665C179.319 304.68 179.591 304.642 179.847 304.552C180.104 304.462 180.339 304.322 180.542 304.141C180.943 303.696 181.239 303.166 181.408 302.59Z" fill="#407BFF"/>
<path d="M186.618 296.286H195.453L195.191 298.566H189.65L189.456 300.265H194.586L194.336 302.442H189.24L189 304.54H194.7L194.427 306.956H185.432L186.618 296.286Z" fill="#407BFF"/>
<path d="M241.406 334.807H122.322L123.872 321.309H242.957L241.406 334.807Z" fill="#407BFF"/>
<path opacity="0.8" d="M241.406 334.807H122.322L121.057 345.819H240.141L241.406 334.807Z" fill="white"/>
<path d="M233.176 406.262H196.935L197.676 399.752H233.928L233.176 406.262Z" fill="#407BFF"/>
<path opacity="0.8" d="M233.176 406.262H196.935L196.319 411.586H232.56L233.176 406.262Z" fill="white"/>
<path opacity="0.5" d="M238.864 356.843H119.78L121.057 345.819H240.141L238.864 356.843Z" fill="white"/>
<path opacity="0.8" d="M238.864 356.843H119.78L118.514 367.867H237.599L238.864 356.843Z" fill="white"/>
<path opacity="0.5" d="M236.333 378.879H117.238L118.514 367.867H237.599L236.333 378.879Z" fill="white"/>
<path opacity="0.8" d="M236.333 378.879H117.238L115.972 389.903H235.057L236.333 378.879Z" fill="white"/>
</g>
<defs>
<clipPath id="clip0">
<rect width="570" height="570" fill="white"/>
</clipPath>
</defs>
</svg>
