<svg width="146" height="154" viewBox="0 0 146 154" fill="none" xmlns="http://www.w3.org/2000/svg">
<path d="M39.3301 123.05L45.2701 128.98" stroke="#36384A" stroke-width="1.65" stroke-linecap="round" stroke-linejoin="round"/>
<path d="M18.9697 102.69L29.8797 113.59" stroke="#36384A" stroke-width="1.65" stroke-linecap="round" stroke-linejoin="round"/>
<path d="M37.4502 104.01L78.5102 145.07" stroke="#36384A" stroke-width="1.65" stroke-linecap="round" stroke-linejoin="round"/>
<path d="M16.5098 83.0701L24.8398 91.39" stroke="#36384A" stroke-width="1.65" stroke-linecap="round" stroke-linejoin="round"/>
<path d="M66.96 116.36L103.09 152.49" stroke="#1577EA" stroke-width="1.65" stroke-linecap="round" stroke-linejoin="round"/>
<path d="M12.4502 61.8401L50.9702 100.36" stroke="#1577EA" stroke-width="1.65" stroke-linecap="round" stroke-linejoin="round"/>
<path d="M42.6504 74.8801L106.42 138.66" stroke="#36384A" stroke-width="1.65" stroke-linecap="round" stroke-linejoin="round"/>
<path d="M16.2803 48.51L29.7803 62.01" stroke="#36384A" stroke-width="1.65" stroke-linecap="round" stroke-linejoin="round"/>
<path d="M95.2998 110.38L110.63 125.7" stroke="#36384A" stroke-width="1.65" stroke-linecap="round" stroke-linejoin="round"/>
<path d="M1 16.0801L79.18 94.2501" stroke="#36384A" stroke-width="1.65" stroke-linecap="round" stroke-linejoin="round"/>
<path d="M63.71 61.6201L140.08 138" stroke="#1577EA" stroke-width="1.65" stroke-linecap="round" stroke-linejoin="round"/>
<path d="M29.9805 27.8901L47.7205 45.6302" stroke="#1577EA" stroke-width="1.65" stroke-linecap="round" stroke-linejoin="round"/>
<path d="M78.5303 59.28L127.87 108.62" stroke="#36384A" stroke-width="1.65" stroke-linecap="round" stroke-linejoin="round"/>
<path d="M28.1602 8.90991L64.6202 45.3699" stroke="#36384A" stroke-width="1.65" stroke-linecap="round" stroke-linejoin="round"/>
<path d="M119.22 82.8101L145 108.58" stroke="#1577EA" stroke-width="1.65" stroke-linecap="round" stroke-linejoin="round"/>
<path d="M50.4404 14.03L100.5 64.09" stroke="#1577EA" stroke-width="1.65" stroke-linecap="round" stroke-linejoin="round"/>
<path d="M94.2598 40.6899L129.08 75.4999" stroke="#36384A" stroke-width="1.65" stroke-linecap="round" stroke-linejoin="round"/>
<path d="M54.5801 1L80.6101 27.04" stroke="#36384A" stroke-width="1.65" stroke-linecap="round" stroke-linejoin="round"/>
<path d="M125.21 54.47L138.75 68.01" stroke="#1577EA" stroke-width="1.65" stroke-linecap="round" stroke-linejoin="round"/>
<path d="M75.4102 4.66992L109.73 38.9999" stroke="#1577EA" stroke-width="1.65" stroke-linecap="round" stroke-linejoin="round"/>
<path d="M118.17 30.27L126.49 38.59" stroke="#36384A" stroke-width="1.65" stroke-linecap="round" stroke-linejoin="round"/>
<path d="M103.56 15.6599L109.3 21.3999" stroke="#36384A" stroke-width="1.65" stroke-linecap="round" stroke-linejoin="round"/>
</svg>
